<svg xmlns="http://www.w3.org/2000/svg" width="32" height="25" fill="none" viewBox="0 0 32 25"><path fill="url(#a)" fill-rule="evenodd" d="m20.078 14.893.062-.245 1.777 5.454-.215.306v-.03l-.061.122c-5.117 6.802-15.963 5.484-19.976-1.44-4.259-7.353.061-17.065 8.395-18.812a15 15 0 0 1 2.635-.245c3.952 0 8.119 1.716 10.233 5.178L24.582.677h5.147l-3.89 10.815 2.512 6.986c.275.704 1.041 1.103 1.746.919l.214-.061 1.38 4.626-1.655.429c-2.36.582-4.78-.613-5.668-2.88a8 8 0 0 1-.582-1.287l-.92-2.42-.06-.092v-.03l-2.054-6.22c-1.133-3.432-3.247-5.086-4.932-5.76-.92-.43-1.961-.644-3.064-.644-4.259 0-7.69 3.401-7.69 7.568s3.431 7.568 7.69 7.568c3.431 0 6.342-2.237 7.322-5.3" clip-rule="evenodd"/><defs><linearGradient id="a" x1="0.0410604" x2="30.6792" y1="0.352299" y2="0.352299" gradientUnits="userSpaceOnUse"><stop stop-color="#7A5FFF"/><stop offset="1" stop-color="#00E824"/></linearGradient></defs></svg>