<svg width="91" height="91" viewBox="0 0 91 91" fill="none" xmlns="http://www.w3.org/2000/svg">
<path d="M36.125 9.47917C36.125 4.24288 40.3679 0 45.6042 0C50.8405 0 55.0833 4.24288 55.0833 9.47917C55.0833 14.7155 50.8405 18.9583 45.6042 18.9583C40.3679 18.9583 36.125 14.7155 36.125 9.47917ZM15.9458 49.03L30.7446 27.6488C32.8755 24.5776 36.3677 22.75 40.0987 22.75H51.1097C54.8369 22.75 58.3328 24.5776 60.4599 27.645L75.2626 49.03L69.0253 53.3487L56.9754 35.9412V53.0833H34.2254V35.9374L22.1755 53.345L15.9382 49.0262L15.9458 49.03ZM19.6957 17.6957L28.5417 13.2708L19.6957 8.84596L15.2708 0L10.846 8.84596L2 13.2708L10.846 17.6957L15.2708 26.5417L19.6957 17.6957ZM81.625 17.0625L77.8333 9.47917L74.0417 17.0625L66.4583 20.8542L74.0417 24.6458L77.8333 32.2292L81.625 24.6458L89.2083 20.8542L81.625 17.0625ZM15.2708 91H75.9375V83.4167H15.2708V91ZM30.4375 72.0417H60.7708V64.4583H30.4375V72.0417Z" fill="#21A038"/>
</svg>
