<svg xmlns="http://www.w3.org/2000/svg" width="32" height="32" fill="none" viewBox="0 0 32 32"><g clip-path="url(#a)"><circle cx="16" cy="16" r="15.75" stroke="#21A038" stroke-width="0.5"/><path fill="#21A038" d="M14.57 15.56a.474.474 0 1 1-.948 0 .474.474 0 0 1 .947 0m2.078 0a.474.474 0 1 1-.947 0 .474.474 0 0 1 .947 0m2.078 0a.474.474 0 1 1-.947 0 .474.474 0 0 1 .947 0m-4.63 1.435a.474.474 0 1 0 0 .948.474.474 0 0 0 0-.948m2.078 0a.474.474 0 1 0 0 .948.474.474 0 0 0 0-.948m2.078 0a.474.474 0 1 0 0 .948.474.474 0 0 0 0-.948m-3.681 2.272a.474.474 0 1 1-.948 0 .474.474 0 0 1 .947 0m2.078 0a.474.474 0 1 1-.947 0 .474.474 0 0 1 .947 0m2.078 0a.474.474 0 1 1-.947 0 .474.474 0 0 1 .947 0"/><path fill="#21A038" d="m24.331 12.6-.005-.014C23.633 10.49 21.693 9.003 19.405 9h-6.74a5.18 5.18 0 0 0-4.906 3.55l-.01.037-.005.013a5 5 0 0 0-.244 1.566c0 .372.302.674.674.674h2.999l-1.38 2.297a5.6 5.6 0 0 0-.808 2.912v.642a1.62 1.62 0 0 0 1.617 1.617h11.285a1.62 1.62 0 0 0 1.617-1.617v-.01a6.84 6.84 0 0 0-1.254-3.958l.014.022-1.328-1.905h2.973a.67.67 0 0 0 .667-.667c0-.562-.09-1.102-.256-1.608zM12.665 9.561h6.74a4.62 4.62 0 0 1 4.251 2.828l.011.03h-3.903a2.4 2.4 0 0 0-1.816-.826h-3.905a2.4 2.4 0 0 0-1.808.824l-.002.003H8.407c.707-1.69 2.346-2.856 4.257-2.858zm-4.604 4.604q.005-.634.168-1.216l-.008.032h3.642a2.4 2.4 0 0 0-.224.819l-.001.009a1.3 1.3 0 0 1-.143.475l.003-.007H8.173a.113.113 0 0 1-.113-.113zm14.882 6.525a1.057 1.057 0 0 1-1.055 1.055H10.603a1.057 1.057 0 0 1-1.055-1.055v-.642c0-.969.271-1.875.74-2.646l-.013.023 1.587-2.643a.28.28 0 0 0 .116-.2c.117-.21.196-.458.22-.72l.001-.007a1.863 1.863 0 0 1 1.845-1.7h3.903c.989 0 1.799.777 1.849 1.754v.004c.01.199.076.381.183.532l-.002-.003 1.829 2.623a6.26 6.26 0 0 1 1.139 3.616v.01zm.967-6.413h-3.365l-.109-.157a.45.45 0 0 1-.081-.235v-.001a2.4 2.4 0 0 0-.231-.918l.006.015h3.723c.101.357.16.767.162 1.19v.001a.105.105 0 0 1-.105.105"/></g><defs><clipPath id="a"><path fill="#fff" d="M0 0h32v32H0z"/></clipPath></defs></svg>