<svg xmlns="http://www.w3.org/2000/svg" width="60" height="30" fill="none" viewBox="0 0 60 30"><g fill="#fff" clip-path="url(#a)"><path d="M42.758 13.577a2.3 2.3 0 0 1-.346-.961 5 5 0 0 1-.042-.384c-.016-.224.036-.442.086-.659.097-.42.16-.843.083-1.276a3.3 3.3 0 0 0-.773-1.654c-.19-.215-.423-.381-.656-.546-.263-.186-.512-.385-.67-.676-.01-.02-.028-.037-.041-.056-.146-.223-.286-.448-.34-.714q-.024-.133-.054-.264c-.058-.247-.1-.5-.18-.738-.172-.503-.49-.912-.883-1.263a2.8 2.8 0 0 0-1.308-.673q-.206-.045-.41-.095a1.7 1.7 0 0 1-.573-.228c-.12-.081-.237-.166-.359-.242a1.6 1.6 0 0 1-.476-.478l-.282-.417a2.7 2.7 0 0 0-.719-.731c-.546-.37-1.145-.588-1.81-.588a5 5 0 0 0-.65.074c-.166.022-.331.054-.497.078-.221.031-.436-.022-.65-.058a2 2 0 0 1-.867-.333 4 4 0 0 0-.295-.192c-.137-.082-.273-.167-.417-.236A2.9 2.9 0 0 0 28.356 0c-.558 0-1.086.119-1.563.418-.122.076-.242.158-.365.233q-.18.11-.363.214a.67.67 0 0 1-.476.072C25.398.9 25.206.865 25.017.82a2.9 2.9 0 0 0-1.369-.033c-.634.147-1.2.42-1.644.909-.133.147-.247.311-.372.467q-.15.187-.304.37a.5.5 0 0 1-.309.177c-.196.03-.391.071-.59.09a3 3 0 0 0-1.602.625c-.537.418-.922.938-1.104 1.6a8 8 0 0 1-.116.38c-.153.491-.49.904-.94 1.15q-.251.14-.499.285c-.2.114-.383.258-.54.426-.69.754-1.01 1.628-.867 2.655.032.236.06.475.008.712-.04.182-.099.36-.145.542a1.6 1.6 0 0 1-.278.563l-.37.484a2.5 2.5 0 0 0-.435.876 4 4 0 0 0-.114.584c-.063.574.004 1.13.27 1.653q.128.25.262.497c.082.155.168.314.188.489.026.224.112.437.1.668-.005.1.024.201.028.302.012.23-.046.45-.101.67-.078.314-.16.628-.165.957.02.174.03.35.062.522.1.577.356 1.116.74 1.556.189.212.416.38.64.55a2.28 2.28 0 0 1 .914 1.507c.04.298.07.6.179.882.384.988 1.061 1.667 2.094 1.967.21.061.421.116.628.186.285.093.529.284.688.538.095.152.19.305.275.463a2.94 2.94 0 0 0 1.206 1.21c.43.236.885.396 1.38.399.23.001.46-.025.69-.042.218-.017.435-.053.653-.01q.172.034.342.079c.285.072.562.163.797.35.107.085.22.163.327.248a2.9 2.9 0 0 0 1.506.62c.615.07 1.208.003 1.762-.293l.504-.274q.241-.14.514-.191.294-.045.591-.08a.7.7 0 0 1 .21 0c.23.042.46.082.687.14.44.115.883.16 1.333.071.812-.16 1.494-.535 1.987-1.217q.035-.047.072-.093c.19-.268.431-.495.71-.668.317-.19.638-.34 1.007-.385q.338-.04.668-.123c.866-.219 1.814-1.05 2.087-2.017.03-.109.063-.217.09-.327.084-.331.197-.644.405-.926.211-.287.434-.55.748-.728q.141-.082.279-.172.287-.172.53-.405c.374-.38.65-.845.802-1.357.113-.338.154-.696.12-1.051-.027-.225-.058-.45-.084-.674a1.7 1.7 0 0 1 .013-.594c.034-.148.072-.295.104-.444.034-.16.097-.314.186-.452q.147-.225.303-.445a2.96 2.96 0 0 0 .588-1.77c.008-.484-.07-.95-.295-1.383a6 6 0 0 0-.293-.507m-.296 2.08c-.035.395-.18.772-.421 1.088-.13.175-.25.36-.365.544a2 2 0 0 0-.244.594c-.017.068-.044.133-.067.199l-.016.043-.075.496q-.039.345.015.689c.027.232.064.464.081.697.043.567-.32 1.452-.942 1.844l-.465.293a2.5 2.5 0 0 0-.738.677c-.02.028-.05.05-.071.077a2 2 0 0 0-.094.13c-.022.032-.035.07-.059.1-.183.24-.318.513-.398.804a10 10 0 0 0-.133.485c-.141.59-.505 1.01-.997 1.337-.252.159-.535.26-.83.298-.25.04-.502.078-.747.142q-.256.08-.498.199c-.079.033-.155.072-.232.108a.3.3 0 0 0-.051.028c-.092.066-.181.135-.275.197a2.6 2.6 0 0 0-.578.544q-.141.171-.275.35c-.288.395-.682.633-1.143.772a2.2 2.2 0 0 1-.637.098 2.3 2.3 0 0 1-.563-.084c-.252-.056-.501-.124-.756-.16-.179-.024-.365-.003-.548-.002-.03 0-.062.01-.093.01a.7.7 0 0 0-.174.004c-.273.078-.565.087-.822.22q-.26.133-.52.27c-.21.113-.415.238-.651.287-.682.139-1.32.056-1.89-.375a17 17 0 0 0-.508-.376 2.2 2.2 0 0 0-.697-.327 2 2 0 0 1-.152-.058.4.4 0 0 0-.065-.026q-.246-.049-.493-.092a2.7 2.7 0 0 0-.69-.008c-.194.018-.388.04-.582.053-.446.029-.847-.112-1.224-.333a1.96 1.96 0 0 1-.73-.729 24 24 0 0 0-.301-.515 2.28 2.28 0 0 0-1.372-1.047c-.157-.045-.315-.092-.473-.132-.65-.162-1.094-.576-1.416-1.142-.149-.26-.194-.55-.236-.84-.04-.278-.074-.56-.185-.82-.214-.5-.495-.956-.935-1.295-.12-.093-.238-.19-.36-.28-.438-.32-.685-.76-.815-1.276a2.1 2.1 0 0 1 .006-1.02q.102-.373.163-.754.032-.286.005-.572a8 8 0 0 0-.04-.425 11 11 0 0 0-.043-.343c-.035-.348-.186-.635-.35-.94q-.126-.23-.243-.467a1.95 1.95 0 0 1-.17-1.016q.018-.227.069-.45c.058-.257.171-.497.333-.704q.194-.249.383-.504.256-.36.39-.781c.052-.152.08-.306.125-.458.097-.323.09-.655.061-.987l-.036-.409c-.045-.5.103-.948.368-1.364.173-.281.414-.514.702-.675q.282-.156.559-.32c.25-.154.471-.35.656-.577.28-.333.483-.723.596-1.143.034-.124.077-.246.112-.37.182-.646.97-1.387 1.81-1.456.214-.018.426-.058.639-.087a1.52 1.52 0 0 0 1.02-.583c.122-.153.247-.303.358-.464.384-.557.93-.839 1.583-.94.29-.045.574.008.858.071q.36.078.725.134c.33.051.636-.04.92-.2q.297-.166.578-.358c.6-.41 1.251-.468 1.938-.287q.249.073.465.217c.185.116.367.237.554.351.243.141.506.245.78.307.152.038.305.052.456.084.36.077.715.032 1.07-.032.23-.042.46-.1.695-.086.692.042 1.28.302 1.71.862.125.164.234.341.352.511.181.26.405.487.66.673.135.1.28.18.417.274.268.184.574.279.887.352q.165.039.331.074c.636.134 1.09.516 1.435 1.048.16.244.224.52.28.801q.066.357.168.705.093.246.22.477.046.094.095.187.014.03.033.06c.063.084.132.164.192.25.173.237.383.444.623.613q.16.12.323.234c.454.312.71.756.854 1.276.105.376.076.748-.012 1.123-.048.205-.08.413-.113.621a1.8 1.8 0 0 0 .026.652c-.024.173.06.327.086.49.048.298.178.565.33.822l.258.432c.242.406.295.85.256 1.31"/><path d="M36.48 14.987c-.002-4.48-3.638-8.09-8.067-8.11-4.512-.018-8.135 3.66-8.142 8.093s3.6 8.12 8.102 8.12c4.467.003 8.107-3.637 8.107-8.103m-8.125 7.449c-4.13-.01-7.434-3.38-7.429-7.457a7.46 7.46 0 0 1 7.452-7.447c4.17.007 7.453 3.414 7.447 7.464-.006 4.04-3.29 7.45-7.47 7.44m8.561-12.454-.408.142.034.114c.063.184.13.367.19.553a.17.17 0 0 0 .135.123q.879.224 1.756.454.06.016.118.034l.002.027c-.194.067-.386.138-.58.203-.198.065-.392.146-.598.198l-.078-.193-.411.145.337.968.413-.143-.084-.264c.517-.183 1.027-.36 1.54-.535l.102.26.411-.143-.03-.107c-.064-.184-.134-.367-.19-.554a.19.19 0 0 0-.16-.142q-.891-.22-1.782-.446-.05-.013-.1-.03l-.002-.027 1.194-.413.081.189.412-.143-.33-.953-.413.143.074.252-1.54.533zm-1.887-2.515-.34.265c.022.032.038.058.057.082.124.16.253.318.373.481a.16.16 0 0 0 .167.072c.183-.018.366-.03.549-.044l1.074-.084q.154-.01.309-.018l.01.025-.981.766-.142-.163-.342.268.632.81.343-.268-.164-.226c.431-.338.855-.672 1.287-1.003l.177.215.342-.268c-.024-.035-.04-.061-.058-.085q-.192-.245-.38-.49a.15.15 0 0 0-.148-.065q-.852.075-1.703.144-.132.01-.264.016l-.013-.024c.332-.258.662-.52 1-.779l.136.153.344-.267-.621-.796-.346.27c.058.077.105.142.156.212L35.196 7.67zM17.47 11.83c.522.18 1.035.348 1.546.53l-.077.248.413.14.345-1.012-.413-.14-.097.25-1.546-.527c.11-.343.223-.672.341-1.006l1.55.527-.079.252.416.141.342-1.013-.413-.14-.093.25-1.549-.527.08-.256-.414-.139-.858 2.527.411.14zm11.309-6.486c.19.012.381.029.573.03a.735.735 0 0 0 .734-.599c.046-.225.008-.427-.175-.585a.2.2 0 0 1-.028-.039q.09-.081.164-.174c.114-.166.12-.354.077-.54-.077-.335-.344-.555-.706-.584s-.724-.05-1.086-.075c-.042-.003-.084 0-.132 0q-.032.213-.024.43l.246.034c-.035.548-.067 1.082-.11 1.622h-.257l-.025.424c.038.005.06.01.083.011q.333.025.666.045m.187-2.073c.145.01.277.01.407.028.16.023.258.23.195.398a.25.25 0 0 1-.267.181q-.164-.008-.326-.023a.3.3 0 0 1-.05-.014zm-.07 1.027c.159.01.298.018.437.029q.035.004.066.02c.113.054.169.201.136.355a.263.263 0 0 1-.267.228c-.124-.004-.248-.016-.372-.026a.2.2 0 0 1-.04-.018zm3.886 1.592c-.087.12-.168.235-.245.36l.876.603.247-.36-.215-.16.49-.713c.016.052.026.076.03.102.059.31.113.622.176.931a.25.25 0 0 1-.047.218c-.073.095-.137.197-.21.305l.678.466.268-.39a.5.5 0 0 0-.076-.059.2.2 0 0 1-.107-.168q-.08-.466-.166-.933a1 1 0 0 1-.005-.104c.056-.009.102-.018.148-.023.248-.027.497-.05.745-.08.13-.017.257-.042.363.084l.273-.398-.697-.478c-.082.117-.157.22-.227.329a.16.16 0 0 1-.132.079c-.303.032-.605.07-.907.106q-.047.002-.095-.004l.421-.613.227.141.247-.36-.881-.604-.247.36.203.153c-.116.213-.864 1.285-.935 1.339zM18.85 8.652l1.3.904-.144.223.358.25 1.142-1.646-.732-.508-.3.432.369.26-.383.55-.495-.346.282-.418-.38-.263-.291.411-.424-.295c.132-.19.251-.37.383-.547l.297.199.297-.432-.695-.482-1.142 1.644.395.275zm7.5-3.092c.436.002.762-.146.984-.408.487-.573.393-1.475-.203-1.945a1.165 1.165 0 0 0-1.591.115c-.376.395-.455 1.043-.182 1.549.23.428.588.665.993.69m-.497-1.789a.604.604 0 0 1 .915-.176.94.94 0 0 1 .234 1.116.61.61 0 0 1-.969.168.92.92 0 0 1-.284-.681.84.84 0 0 1 .104-.427m5.107 1.915a1.15 1.15 0 0 0 1.448-.054c.047-.043.086-.095.135-.149l-.444-.3c-.035.03-.058.05-.083.069-.362.283-.839.13-.972-.311a.84.84 0 0 1-.013-.44c.065-.276.208-.496.47-.62.288-.138.662-.03.773.246a.37.37 0 0 0 .291.242c.027.006.052.018.078.026l.183.054.17-.514c-.089-.03-.165-.06-.243-.082a.25.25 0 0 1-.162-.122.7.7 0 0 0-.281-.274 1.16 1.16 0 0 0-1.006-.063c-.522.203-.863.745-.838 1.327.016.397.173.725.494.965m-8.936 2.096c.529-.112.967-.638.897-1.24a.6.6 0 0 0-.085-.279l-.475.223.016.096a.595.595 0 0 1-.684.7c-.415-.057-.766-.463-.761-.882.004-.371.316-.672.686-.601a.21.21 0 0 0 .207-.064c.068-.064.142-.122.212-.184q.031-.03.065-.069l-.35-.405c-.08.067-.148.123-.215.183a.2.2 0 0 1-.136.053.8.8 0 0 0-.373.085c-.21.11-.38.28-.488.491-.233.477-.18.938.13 1.357.335.451.79.655 1.354.536m1.047-2.868-.137-.298.29-.14.723 1.485-.232.124c.067.135.124.265.195.39l.488-.238c.155-.077.316-.143.467-.235l-.19-.386-.243.11-.724-1.489.33-.156.149.29.474-.231-.33-.678-2.062 1.004.33.677zm6.808 20.602.256-.02v-.383h-.107c-.164.007-.328.018-.491.02a.18.18 0 0 0-.163.087q-.227.328-.458.651c-.02.027-.043.051-.068.081l-.056-.06q-.27-.316-.537-.635a.14.14 0 0 0-.13-.059c-.12.007-.242.007-.363.013-.08.003-.16.013-.238.02 0 .077-.002.14.001.202.003.06.013.12.02.18h.244l.03.73-.255.02.02.387.86-.039v-.378l-.177-.016-.023-.439.029-.01.605.689.276-.378c.088-.12.172-.245.266-.36l.027.01.019.44-.165.02.022.385.857-.04v-.39h-.27zm1.01-.6c-.018.017-.037.031-.064.054a.3.3 0 0 1 .07-.302.7.7 0 0 1 .315-.194q.196-.063.391-.123.074-.024.154-.053l-.125-.443-.34.095a.06.06 0 0 0-.034.025c.012.085-.06.08-.105.098q-.224.076-.414.214c-.253.2-.377.461-.314.781q.08.384.203.756a.8.8 0 0 0 .154.259c.318.367.864.284 1.148.025.267-.244.33-.613.164-.967a.738.738 0 0 0-1.203-.225m.502 1.011c-.215.006-.41-.194-.412-.422a.4.4 0 0 1 .391-.399c.211 0 .376.19.378.437a.367.367 0 0 1-.357.384m4.86-2.778-.472-.562.159-.15-.247-.293-.67.566.247.293.17-.13.123.15-.512.43-.126-.155.155-.133-.248-.296-.672.565.248.294.18-.137.472.564-.165.153.247.294.671-.565-.248-.295-.165.128-.157-.19.514-.432.155.19-.155.145.247.294.67-.566-.246-.293zm-1.974 1.528-.333-.647.155-.096-.18-.341c-.147.077-.283.152-.424.217a.19.19 0 0 0-.118.157q-.089.495-.185.988a1 1 0 0 1-.032.097l-.252-.488.153-.097-.175-.34-.724.376.176.34.176-.075.336.65-.158.098c.057.121.113.23.177.338.148-.076.281-.151.42-.213a.21.21 0 0 0 .13-.175q.09-.483.188-.964.014-.046.033-.09c.089.17.171.316.24.471l-.158.1.177.339.724-.377-.177-.336zm-14.914-4.091.338-.172-.785-1.546q-.175.077-.34.174l.092.2c-.124.057-.235.114-.351.158q-.292.11-.47-.147c-.025-.034-.047-.069-.076-.11l-.337.174c.043.084.078.154.115.223a.62.62 0 0 0 .687.327q.272-.053.518-.18c.037-.019.075-.033.117-.052.066.13.13.243.184.37l-.662.335-.103-.192c-.19.073-.288.13-.335.194l.412.814a3 3 0 0 0 .345-.173l-.115-.246c.226-.115.438-.227.659-.331zm5.349 4.263c-.046.118-.162.15-.255.211a.06.06 0 0 1-.044-.005c-.043-.016-.085-.035-.136-.056l.224-.584-.633-.246-.137.36.108.046.108.05-.267.685-.225-.079-.14.36.78.304.14-.357-.14-.071.07-.17a.196.196 0 0 1 .196.163c.056.182.122.362.188.541q.015.057.062.09c.109.051.222.09.342.138l.14-.361c-.054-.022-.098-.037-.14-.058a.15.15 0 0 1-.07-.054c-.061-.138-.116-.279-.177-.426.141-.081.268-.157.398-.226a.16.16 0 0 1 .099.004c.055.014.107.036.167.057l.138-.358-.675-.262zm15.077-8.99c-.102-.004-.204-.001-.305-.001-.17-.001-.197-.02-.25-.186l-.09-.278a.14.14 0 0 0-.134-.096.135.135 0 0 0-.133.099l-.103.31c-.042.124-.075.149-.203.15-.11.002-.219-.001-.328.002a.144.144 0 0 0-.155.1c-.02.065 0 .117.068.171l.26.2c.108.082.122.123.084.251-.032.108-.07.215-.101.324a.14.14 0 0 0 .053.176.14.14 0 0 0 .173-.014l.2-.145c.175-.129.195-.13.368-.005q.1.073.2.143c.073.049.13.05.184.01.055-.04.067-.093.043-.18l-.017-.055q-.043-.127-.083-.256c-.035-.118-.02-.167.08-.244q.132-.105.269-.206a.15.15 0 0 0 .072-.113.15.15 0 0 0-.04-.113.14.14 0 0 0-.113-.044m-21.935 1.012q.125.087.248.176c.09.062.145.068.203.022.071-.056.06-.128.036-.202q-.046-.138-.089-.279c-.04-.134-.028-.175.083-.26.09-.07.182-.136.27-.207.084-.069.093-.16.018-.219a.24.24 0 0 0-.129-.042c-.105-.006-.21-.001-.316-.002-.129-.002-.16-.025-.203-.15l-.102-.31a.14.14 0 0 0-.266-.005l-.027.077-.087.266a.16.16 0 0 1-.166.122h-.351a.154.154 0 0 0-.16.096c-.025.064-.002.12.073.18q.125.097.251.192c.116.089.128.128.084.27-.032.101-.068.2-.094.302a.22.22 0 0 0 .005.134c.035.08.127.096.209.04.094-.062.183-.132.275-.197a.17.17 0 0 1 .235-.004m20.607 3.272c-.227-.119-.447-.231-.665-.362l.126-.224.26.127.204-.382-.588-.315-.87 1.624c.2.108.389.214.589.314l.202-.38-.254-.144.122-.222c.226.122.447.234.661.36l-.102.213.338.181.449-.836-.34-.18zm-.866 1.447-.165-.127c-.12-.093-.236-.193-.362-.278-.22-.149-.43-.135-.636.033a1.1 1.1 0 0 0-.322.44.9.9 0 0 0-.08.37l.288.062.035-.112a.84.84 0 0 1 .263-.395c.111-.088.204-.078.307.027q-.083.088-.157.17a.9.9 0 0 0-.231.387.43.43 0 0 0 .139.455.43.43 0 0 0 .48.082.9.9 0 0 0 .227-.159.6.6 0 0 0 .188-.396.2.2 0 0 0 .099-.022c.122-.146.238-.297.362-.452l-.301-.24zm-.333.551a.6.6 0 0 1-.107.15.16.16 0 0 1-.254-.195 1 1 0 0 1 .075-.103q.075-.096.154-.19a.1.1 0 0 1 .027-.015c.178.119.194.169.105.353m-17.778-.593.7.884a1.2 1.2 0 0 0 .31-.32.7.7 0 0 0 .111-.34c.007-.32-.147-.556-.413-.711-.518-.304-1.09.085-1.2.54a.7.7 0 0 0-.017.255c.043.367.355.71.732.809l.126-.288c-.042-.029-.079-.05-.11-.078-.078-.064-.157-.128-.229-.2a.43.43 0 0 1-.125-.27.28.28 0 0 1 .115-.281m.66-.073c.115.143.111.269-.02.405l-.395-.5c.151-.09.298-.053.416.095m6.173 3.46a.8.8 0 0 0-.745.505.8.8 0 0 0-.056.311c0 .425.305.794.831.798.539.003.795-.438.795-.808.003-.453-.354-.802-.825-.806m.01 1.212a.37.37 0 0 1-.357-.238.4.4 0 0 1-.026-.149c-.002-.245.163-.426.386-.425a.36.36 0 0 1 .359.233q.027.074.021.15c-.002.287-.205.444-.383.429m-3.75-2.683c-.41-.01-.809.337-.816.826-.006.425.391.799.835.802.43.002.797-.371.799-.816.002-.437-.37-.801-.818-.812m-.014 1.22a.375.375 0 0 1-.373-.384c0-.23.188-.431.403-.433a.38.38 0 0 1 .383.375c-.002.23-.198.44-.413.441m-.471-1.51a1 1 0 0 0-.1-.104.43.43 0 0 1-.147-.204.76.76 0 0 0-.243-.323c-.247-.208-.523-.263-.818-.134a.8.8 0 0 0-.504.718c-.03.5.451.927.949.85a.42.42 0 0 0 .247-.101q-.052-.084-.102-.16l-.103-.16q-.108.02-.22.021a.38.38 0 0 1-.352-.426c.028-.227.245-.404.459-.376a.43.43 0 0 1 .358.366.2.2 0 0 0 .033.106c.082.082.172.157.264.239zM40.095 10.71a.3.3 0 0 1-.123-.062.376.376 0 0 1-.051-.505l.032-.046-.129-.366c-.176.134-.297.284-.31.499a.92.92 0 0 0 .214.65c.141.172.331.232.569.215-.038-.109-.073-.2-.099-.292a.12.12 0 0 0-.103-.093"/><path d="M30.23 15.438a5 5 0 0 0-.441-.215c-.074-.034-.153-.055-.237-.084q.008-.122.013-.237c.006-.16-.069-.236-.228-.247a2 2 0 0 1-.289-.037c-.433-.104-.791-.344-1.122-.63-.056-.05-.061-.09-.017-.166.09-.155.176-.314.28-.46.36-.498.775-.952 1.24-1.353.296-.261.602-.51.959-.687a.3.3 0 0 0 .075-.055q.238-.233.472-.473a.32.32 0 0 0 .08-.349.3.3 0 0 0-.066-.106 11 11 0 0 0-.538-.54.325.325 0 0 0-.457.007q-.043.04-.083.082l-2.841 2.843a.25.25 0 0 1-.178.097.38.38 0 0 0-.257.126c-.279.28-.56.556-.836.838a.425.425 0 0 0-.101.478.4.4 0 0 0 .097.142q.27.278.547.548a.39.39 0 0 0 .34.122c.114-.02.166.032.21.126l-.12.053q-.275.107-.503.293a.78.78 0 0 0-.293.624q.003 1.887.002 3.773a.6.6 0 0 0 .012.128.197.197 0 0 0 .254.138.2.2 0 0 0 .089-.06.23.23 0 0 0 .053-.162v-.574c0-.033.005-.066.01-.108l.073.03q.404.209.85.295.044.01.092.012a.2.2 0 0 0 .18-.297.2.2 0 0 0-.105-.09c-.043-.017-.091-.02-.136-.035-.196-.063-.395-.12-.588-.195a1.1 1.1 0 0 1-.256-.16.3.3 0 0 1-.122-.266c.005-.187.001-.375.002-.562a1 1 0 0 1 .012-.09c.124.06.233.12.348.168.51.211 1.044.284 1.592.284l.046-.003a.2.2 0 0 0 .16-.138.19.19 0 0 0-.045-.195.22.22 0 0 0-.168-.068c-.195-.01-.39-.02-.584-.04a3 3 0 0 1-.86-.217 1.3 1.3 0 0 1-.368-.225.3.3 0 0 1-.127-.204c-.008-.174-.002-.348-.002-.54.101.054.184.102.272.141q.133.06.272.108a3 3 0 0 0 .555.14 5 5 0 0 0 .862.072q.147 0 .293-.006a4.6 4.6 0 0 0 .867-.128 3 3 0 0 0 .54-.19q.128-.062.256-.13l.011.039.002 1.078a.28.28 0 0 1-.09.21q-.087.087-.189.155a1.8 1.8 0 0 1-.492.214l-.226.061a.19.19 0 0 0-.148.163.2.2 0 0 0 .257.226q.415-.087.786-.296c.028-.016.058-.028.102-.05v1.356a1 1 0 0 0 .004.117.2.2 0 0 0 .395-.003q.006-.064.004-.129v-2.683c0-.367-.003-.734 0-1.101a.67.67 0 0 0-.193-.487 1.3 1.3 0 0 0-.26-.216m-1.096-.385a.5.5 0 0 1 0 .092 1.48 1.48 0 0 1-.434.8.23.23 0 0 1-.177.071c-.241-.004-.482-.001-.736-.001a3.5 3.5 0 0 0-.708-1.188l.554-.552c.431.37.91.676 1.501.778m1.079-4.888.302.307.077.082q-.03.039-.059.071a2.7 2.7 0 0 1-.612.5c-.31.177-.578.413-.84.653q-.659.587-1.184 1.294c-.076.104-.146.211-.212.308l-.345-.343zm-3.614 4.519c-.19-.187-.382-.378-.56-.561l.88-.88q.303.256.562.559c-.044.078-.775.814-.882.882m3.634 1.561a1 1 0 0 1-.202.193c-.195.13-.414.221-.644.268-.807.188-1.61.182-2.402-.076a1.5 1.5 0 0 1-.456-.236c-.239-.188-.242-.364-.007-.552.168-.128.36-.221.565-.274a.2.2 0 0 1 .043.002q.133.2.213.428c-.038.01-.067.015-.095.025a.21.21 0 0 0-.142.207.205.205 0 0 0 .184.184q.053.004.105.002h1.839a1 1 0 0 0 .105-.003.2.2 0 0 0-.003-.397q-.058-.006-.133-.01l.255-.465c.251.074.495.163.694.344q.048.044.083.098a.21.21 0 0 1-.002.262"/><path d="M30.945 14.605q-.158-.016-.314 0a.198.198 0 0 0-.115.339.2.2 0 0 0 .136.06c.046.004.093 0 .14 0 .043 0 .086.003.129 0a.206.206 0 0 0 .201-.19.197.197 0 0 0-.177-.21m-1.512-1.502a.195.195 0 0 0-.21.176 1.4 1.4 0 0 0-.002.303.2.2 0 0 0 .217.183.203.203 0 0 0 .186-.205q.002-.063 0-.128.002-.064 0-.129a.205.205 0 0 0-.19-.2m1.034.436a.2.2 0 0 0-.07.022q-.149.13-.278.279c-.055.068-.026.171.039.233a.184.184 0 0 0 .245.021q.131-.108.24-.238a.175.175 0 0 0 .013-.208.21.21 0 0 0-.19-.11m5.1 1.329a.1.1 0 0 0-.101.116.1.1 0 0 0 .144.089.1.1 0 0 0 .057-.1.1.1 0 0 0-.028-.074.1.1 0 0 0-.073-.031m-14.302-.87a.105.105 0 0 0 .104-.101.11.11 0 0 0-.097-.098.1.1 0 0 0-.095.063.1.1 0 0 0-.008.039.1.1 0 0 0 .096.097M23.6 20.26a.105.105 0 0 0-.104.1.11.11 0 0 0 .097.099.103.103 0 0 0 .102-.103.1.1 0 0 0-.094-.096m-2.231-4.17a.1.1 0 0 0-.172-.066.1.1 0 0 0 .004.142.1.1 0 0 0 .141-.005.1.1 0 0 0 .027-.071m12.187 3.78a.11.11 0 0 0-.101.106.1.1 0 0 0 .168.067.1.1 0 0 0 .004-.14.1.1 0 0 0-.071-.033m.369-.409a.1.1 0 0 0-.102.09.104.104 0 0 0 .096.11.11.11 0 0 0 .103-.093.105.105 0 0 0-.097-.107M24.458 9.053a.105.105 0 0 0 .098-.096.107.107 0 0 0-.102-.104.105.105 0 0 0-.097.096.1.1 0 0 0 .029.073.1.1 0 0 0 .072.03m.972 12.403a.097.097 0 0 0-.09.1.104.104 0 0 0 .097.098.11.11 0 0 0 .103-.104.104.104 0 0 0-.11-.094m6.38-.252a.1.1 0 0 0-.096.097.1.1 0 0 0 .091.102.104.104 0 0 0 .109-.097.106.106 0 0 0-.105-.102m-4.791.746a.1.1 0 1 0-.011.2.1.1 0 0 0 .01-.2M25.932 8.32a.115.115 0 0 0 .1-.097.104.104 0 0 0-.103-.104.1.1 0 0 0-.071.032.1.1 0 0 0-.026.074.11.11 0 0 0 .1.094m2.699-.422a.103.103 0 0 0 .102-.102.1.1 0 0 0-.033-.071.1.1 0 0 0-.074-.026.106.106 0 0 0-.092.101.11.11 0 0 0 .097.098M21.94 18.084a.105.105 0 0 0-.108.1.11.11 0 0 0 .096.1.1.1 0 0 0 .011-.2m6.718 3.986a.11.11 0 0 0-.101.095.104.104 0 0 0 .1.105.1.1 0 0 0 .1-.093.105.105 0 0 0-.1-.107m1.077-14.05a.106.106 0 0 0 .096-.1.105.105 0 0 0-.106-.101.1.1 0 0 0-.094.099.1.1 0 0 0 .03.073.1.1 0 0 0 .074.028m5.317 9.552a.104.104 0 0 0-.102.104.1.1 0 0 0 .095.096.103.103 0 0 0 .104-.1.114.114 0 0 0-.097-.1m.393-3.158a.1.1 0 0 0 .095.099.105.105 0 0 0 .106-.1.1.1 0 0 0-.03-.067.1.1 0 0 0-.066-.033.106.106 0 0 0-.105.101m-3.141 6.509a.1.1 0 1 0-.033.198.1.1 0 0 0 .033-.198m3.243-5.488a.11.11 0 0 0-.1.095.1.1 0 1 0 .1-.095m-1.287 3.588a.1.1 0 0 0-.101.1.1.1 0 0 0 .1.1.105.105 0 0 0 .1-.093.106.106 0 0 0-.099-.108m-9.313 2.185a.104.104 0 0 0-.098.098.1.1 0 0 0 .093.101.103.103 0 0 0 .106-.102.11.11 0 0 0-.1-.097m5.864.447a.11.11 0 0 0-.1.094.1.1 0 0 0 .165.08.1.1 0 0 0 .035-.067.11.11 0 0 0-.1-.107m-1.059.294a.1.1 0 0 0-.072.03.1.1 0 0 0-.028.072.103.103 0 0 0 .096.097.11.11 0 0 0 .102-.105.103.103 0 0 0-.098-.095M26.993 8.023a.1.1 0 0 0 .098-.094.106.106 0 0 0-.1-.106.11.11 0 0 0-.1.097.1.1 0 0 0 .03.073.1.1 0 0 0 .072.03m4.307.489a.105.105 0 0 0 .102-.104.1.1 0 0 0-.105-.098.1.1 0 0 0-.07.034.1.1 0 0 0-.026.073.105.105 0 0 0 .1.095m-6.383.258a.1.1 0 0 0 .075-.025.1.1 0 0 0 .03-.108.1.1 0 0 0-.09-.066.1.1 0 0 0-.095.057.1.1 0 0 0-.01.038.103.103 0 0 0 .09.104m-.91.602a.11.11 0 0 0 .1-.095.103.103 0 0 0-.102-.104.1.1 0 0 0-.097.093q0 .02.007.04a.1.1 0 0 0 .092.066m-1.821 2.046a.1.1 0 0 0 .002-.2.1.1 0 0 0-.101.098q0 .042.028.072a.1.1 0 0 0 .07.03m-.265.485a.107.107 0 0 0 .105-.102.1.1 0 0 0-.2.004.104.104 0 0 0 .095.098m-.218.502a.098.098 0 0 0 .067-.168.1.1 0 0 0-.072-.032.11.11 0 0 0-.098.098.1.1 0 0 0 .103.102m-.343 1.051a.1.1 0 0 0 .099-.056.1.1 0 0 0 .01-.04.1.1 0 0 0-.1-.104.11.11 0 0 0-.1.096.105.105 0 0 0 .09.104m14.019.408a.11.11 0 0 0 .105.101.103.103 0 0 0 .094-.109.1.1 0 0 0-.102-.089.11.11 0 0 0-.097.097m-.102-.54a.1.1 0 0 0 .065.095.1.1 0 0 0 .04.006.11.11 0 0 0 .09-.105.1.1 0 0 0-.1-.093.1.1 0 0 0-.089.06.1.1 0 0 0-.006.037m-.714 5.236a.1.1 0 0 0-.103.092.1.1 0 0 0 .005.04.1.1 0 0 0 .051.057.1.1 0 0 0 .078.004.1.1 0 0 0 .064-.092.11.11 0 0 0-.095-.101M25.424 8.523a.098.098 0 0 0 .09-.117.098.098 0 0 0-.13-.072.1.1 0 0 0-.063.085.1.1 0 0 0 .03.074.1.1 0 0 0 .073.03m9.129 2.87a.1.1 0 0 0 .063-.17.1.1 0 0 0-.068-.03.1.1 0 0 0-.07.03.1.1 0 0 0-.02.11.1.1 0 0 0 .095.06m-12.063-.44a.1.1 0 0 0 .098-.097.11.11 0 0 0-.068-.093.1.1 0 0 0-.04-.007.1.1 0 0 0-.091.104.1.1 0 0 0 .1.093m.695-.848a.1.1 0 0 0 .102-.09.104.104 0 0 0-.096-.11.1.1 0 0 0-.006.2m-.347 9.361a.1.1 0 0 0-.073.03.1.1 0 0 0-.029.074.1.1 0 0 0 .099.095.103.103 0 0 0 .097-.098q0-.04-.028-.068a.1.1 0 0 0-.066-.033m9.878-10.113a.1.1 0 0 0 .105-.097.1.1 0 0 0-.061-.095.1.1 0 0 0-.039-.007.1.1 0 0 0-.005.2M24.028 20.61a.1.1 0 0 0-.098.061.1.1 0 0 0-.008.04.11.11 0 0 0 .099.098.103.103 0 0 0 .098-.097.097.097 0 0 0-.092-.102m7.776-11.856a.1.1 0 0 0 .092-.102.1.1 0 0 0-.2.003.1.1 0 0 0 .107.099m-5.321 13.072a.1.1 0 0 0-.105.088.105.105 0 0 0 .1.108.106.106 0 0 0 .1-.096.1.1 0 0 0-.095-.1m-5.299-6.731a.1.1 0 0 0 .007-.2.1.1 0 0 0-.102.09.106.106 0 0 0 .095.11M30.27 8.14a.105.105 0 0 0 .096-.1.11.11 0 0 0-.1-.096.1.1 0 0 0-.073.032.1.1 0 0 0-.026.075.1.1 0 0 0 .103.09m-2.728-.201a.1.1 0 0 0 .06-.17.097.097 0 0 0-.136.002.1.1 0 0 0-.032.067.106.106 0 0 0 .108.1m.544-.04a.11.11 0 0 0 .098-.097.103.103 0 0 0-.102-.103.1.1 0 0 0-.095.095.1.1 0 0 0 .06.096.1.1 0 0 0 .039.009m7.145 4.995a.1.1 0 0 0 .093-.101.1.1 0 0 0-.096-.099.1.1 0 0 0-.093.068.1.1 0 0 0-.006.04.1.1 0 0 0 .102.092m0 4.16a.1.1 0 0 0-.072.165.1.1 0 0 0 .064.034.1.1 0 0 0 .11-.095.104.104 0 0 0-.102-.104m-.201-4.678a.1.1 0 0 0 .078-.169.097.097 0 0 0-.137-.003.1.1 0 0 0-.005.137q.026.03.065.035m-1.878-2.672a.104.104 0 0 0 .09-.105.097.097 0 0 0-.098-.095.1.1 0 1 0 .008.2m1.092 1.225a.097.097 0 0 0 .099-.093.1.1 0 0 0-.09-.104.1.1 0 0 0-.104.09.1.1 0 0 0 .023.075.1.1 0 0 0 .072.032m-11.428-.414a.098.098 0 0 0 .07-.166.097.097 0 0 0-.167.067.103.103 0 0 0 .097.099m10.724-.432a.097.097 0 0 0 .1-.094.103.103 0 0 0-.09-.105.1.1 0 0 0-.097.061.1.1 0 0 0-.008.04.1.1 0 0 0 .059.09.1.1 0 0 0 .036.008m.372.409a.097.097 0 0 0 .096-.096.093.093 0 0 0-.093-.098.1.1 0 0 0-.074.024.1.1 0 0 0-.032.071.1.1 0 0 0 .03.072.1.1 0 0 0 .073.027m.909 7.586a.1.1 0 0 0-.101.093.1.1 0 0 0 .104.101.1.1 0 0 0 .094-.099.1.1 0 0 0-.097-.095m-4.025-9.773a.1.1 0 0 0 .067-.032.1.1 0 0 0-.006-.137.1.1 0 0 0-.07-.026.103.103 0 0 0-.098.096.1.1 0 0 0 .107.099m-4.345-.153a.1.1 0 0 0 .102-.103.097.097 0 0 0-.095-.095.1.1 0 0 0-.105.1.11.11 0 0 0 .098.098m8.926 8.372a.1.1 0 0 0-.088.063.1.1 0 0 0 .023.105.098.098 0 0 0 .165-.072.104.104 0 0 0-.1-.096m-5.099 5.298a.097.097 0 0 0-.09.102.094.094 0 0 0 .096.093q.04 0 .068-.027a.097.097 0 0 0-.074-.168m-7.09-1.942a.1.1 0 0 0-.087.068.1.1 0 0 0 .034.105.1.1 0 0 0 .073.02.1.1 0 0 0 .066-.036.095.095 0 0 0 .01-.108.1.1 0 0 0-.059-.046.1.1 0 0 0-.037-.003m4.365 2.152a.104.104 0 0 0-.098.098.1.1 0 0 0 .06.093.1.1 0 0 0 .13-.13.1.1 0 0 0-.093-.061m5.61-1.775a.1.1 0 0 0-.104.09.1.1 0 0 0 .03.073.1.1 0 0 0 .073.03.096.096 0 0 0 .096-.097.09.09 0 0 0-.058-.09.1.1 0 0 0-.037-.007m-5.054 1.814a.1.1 0 0 0-.073.032.1.1 0 0 0-.028.075.098.098 0 0 0 .196-.006.104.104 0 0 0-.095-.1m4.621-1.465a.1.1 0 0 0-.095.1.1.1 0 0 0 .1.096.1.1 0 0 0 .099-.095.1.1 0 0 0-.064-.095.1.1 0 0 0-.04-.006m-8.25.318a.1.1 0 0 0-.074.028.1.1 0 0 0-.03.073.094.094 0 0 0 .094.098.096.096 0 0 0 .1-.093.1.1 0 0 0-.09-.106m-.893-11.201a.102.102 0 0 0 .085-.14.1.1 0 0 0-.06-.054.097.097 0 0 0-.126.101.1.1 0 0 0 .101.093m-2.39 4.819a.1.1 0 0 0 .075-.025.1.1 0 0 0 .032-.07.096.096 0 0 0-.091-.1.1.1 0 0 0-.108.096.1.1 0 0 0 .092.099m11.078-5.508a.1.1 0 0 0 .067-.03.1.1 0 0 0 .026-.07.097.097 0 0 0-.1-.095.1.1 0 0 0-.07.029.1.1 0 0 0-.02.11.1.1 0 0 0 .097.056m3.207 6.946a.1.1 0 0 0-.097.098.096.096 0 0 0 .092.101.1.1 0 0 0 .074-.027.1.1 0 0 0 .029-.074.104.104 0 0 0-.098-.097m-4.157 5.469a.1.1 0 0 0-.074.027.097.097 0 0 0 .001.142.1.1 0 0 0 .07.026.098.098 0 0 0 .003-.195m-9.853-4.821a.098.098 0 0 0-.166-.066.097.097 0 0 0 .002.14.1.1 0 0 0 .074.03.1.1 0 0 0 .09-.104m-.167-1.086a.1.1 0 0 0-.098-.096.1.1 0 0 0-.094.066.1.1 0 0 0-.006.04.1.1 0 0 0 .105.088.093.093 0 0 0 .093-.098m.223 1.523a.097.097 0 0 0-.104.101.1.1 0 0 0 .03.068.1.1 0 0 0 .069.026q.04 0 .068-.027a.098.098 0 0 0-.064-.168m.965 1.964a.1.1 0 0 0-.062.169.1.1 0 0 0 .069.027.1.1 0 0 0 .068-.027.1.1 0 0 0 .029-.068.1.1 0 0 0-.03-.073.1.1 0 0 0-.074-.028m-.78-1.445a.09.09 0 0 0-.1.09.098.098 0 0 0 .11.104.1.1 0 0 0 .08-.072.098.098 0 0 0-.09-.122m13.108-5.712a.103.103 0 0 0 .093-.101.1.1 0 0 0-.102-.094.1.1 0 0 0-.09.058.1.1 0 0 0-.007.037.1.1 0 0 0 .03.074q.015.014.035.02a.1.1 0 0 0 .04.006m-13.307 1.049a.095.095 0 0 0 .095-.062.1.1 0 0 0 .005-.04.096.096 0 0 0-.1-.092.1.1 0 0 0-.088.06.1.1 0 0 0-.006.037.097.097 0 0 0 .094.097m.682 5.648a.1.1 0 0 0-.067.029.1.1 0 0 0-.026.068.097.097 0 1 0 .193-.007.1.1 0 0 0-.063-.085.1.1 0 0 0-.037-.005m3.758 3.09a.097.097 0 0 0-.098.105.1.1 0 0 0 .032.066.1.1 0 0 0 .069.023c.025 0 .05-.012.067-.03a.1.1 0 0 0 .026-.069.1.1 0 0 0-.028-.067.1.1 0 0 0-.068-.029M29.19 7.935a.1.1 0 0 0 .091-.102.098.098 0 0 0-.188-.034.1.1 0 0 0-.007.037.1.1 0 0 0 .03.072q.015.015.035.021a.1.1 0 0 0 .04.006m.017 14.097a.098.098 0 1 0-.006.195.098.098 0 0 0 .006-.195M8.155 20.495c.826-1.58 1.728-3.138 2.47-4.769.816-1.796-.205-3.658-2.105-4.06-1.75-.37-3.363.833-3.577 2.668-.188 1.62 1.052 2.988 2.794 3.074.26.013.523.002.886.002l-1.804 3.085zm-.135-4.05c-1.163.015-2.01-.783-2.016-1.903-.007-1.13.833-1.963 1.967-1.953 1.088.01 1.87.803 1.88 1.91.012 1.125-.747 1.931-1.83 1.946M2.837 11.71c-.613.286-1.041.47-1.455.683-.46.236-.905.499-1.382.764l.049 1.027 1.615-.792v6.216h-.74v.87h2.677v-.87h-.738s.004-2.758-.001-4.003c-.005-1.229.023-2.46-.025-3.895m9.421-3.156H.046v.592h12.212zm0 14.439H.046v.591h12.212zM59.08 8.554H45.154v.592H59.08zm0 14.439H45.154v.591H59.08zm-13.084-4.86a2.616 2.616 0 1 0 3.957-2.242 2.341 2.341 0 1 0-2.683 0 2.61 2.61 0 0 0-1.274 2.242m1.204-4.158a1.412 1.412 0 1 1 1.47 1.408l-.059-.003-.058.003a1.41 1.41 0 0 1-1.353-1.408m1.411 2.47a1.688 1.688 0 1 1 0 3.377 1.688 1.688 0 0 1 0-3.377m7.089 4.293q-.932 0-1.597-.481-.665-.482-1.06-1.335l.753-.513q.307.668.78 1.056.473.373 1.163.373.742 0 1.15-.42.422-.435.422-1.18 0-.915-.55-1.35t-1.712-.435v-.884q1.06 0 1.61-.404.55-.405.55-1.21 0-.622-.371-.994-.37-.373-1.074-.373-.665 0-1.137.404-.473.403-.677 1.102l-.767-.435q.217-.621.588-1.055a2.5 2.5 0 0 1 .882-.668q.51-.248 1.124-.248 1.061 0 1.687.605.64.606.64 1.615 0 .62-.27 1.102-.255.48-.715.76a2 2 0 0 1-1.01.295v-.17q.933 0 1.534.636.614.637.614 1.708 0 .775-.307 1.335a2.14 2.14 0 0 1-.882.869q-.576.295-1.367.295"/></g><defs><clipPath id="a"><path fill="#fff" d="M0 0h59.134v30H0z"/></clipPath></defs></svg>