<svg xmlns="http://www.w3.org/2000/svg" width="159" height="25" fill="none" viewBox="0 0 159 25"><g clip-path="url(#a)"><path fill="#fff" d="M42.245 10.858h-3.59l-.7 2.41h-2.843L38.8 2.296h3.414l3.688 10.972h-2.965zm-3.05-2.008h2.502L40.48 4.622h-.06zm10.342-7.102h-2.692v11.52h2.692zm6.715 2.943q1.605 0 2.494 1.14.897 1.141.897 3.202t-.89 3.202q-.881 1.147-2.47 1.147-1.91 0-2.594-1.558h-.053v4.022h-2.692V4.806h2.677v1.482h.053q.32-.753.997-1.17.676-.427 1.581-.427m-.996 6.57q.745 0 1.186-.6.44-.61.44-1.628 0-1.011-.44-1.612-.449-.608-1.186-.609-.738 0-1.186.61-.442.606-.441 1.619 0 1.019.44 1.62.442.6 1.187.6m5.522-9.513h2.638v4.646h.053q.684-1.733 2.73-1.733 1.415 0 2.22.844.806.85.806 2.35v5.413h-2.7V8.432q0-.729-.395-1.156-.402-.418-1.094-.418t-1.126.456q-.44.464-.44 1.187v4.767h-2.692zm13.238 9.764q.67 0 1.126-.357.48-.365.48-.935v-.586l-1.56.107q-1.186.082-1.186.897a.76.76 0 0 0 .311.639q.305.235.83.235m-.95 1.87q-1.209 0-2.023-.714-.836-.722-.836-1.848 0-2.379 3.43-2.593l1.984-.122V7.62q0-.51-.343-.79-.334-.274-.912-.274-.54 0-.897.258a.96.96 0 0 0-.403.654H70.64q.053-1.286 1.095-2.06 1.05-.784 2.76-.784 1.689 0 2.723.783 1.035.79 1.034 2.069v5.794h-2.616v-1.217h-.053q-.334.624-1.042.981-.684.35-1.475.35m9.682-8.578h2.616v1.627h.053q.251-.814.904-1.293.655-.48 1.514-.479.943 0 1.559.464.615.471.798 1.33h.053q.252-.82.958-1.308.716-.486 1.658-.486 1.239 0 2.007.79.769.8.769 2.084v5.734h-2.693v-5.05q0-1.368-1.216-1.368-.57 0-.905.38-.342.38-.342 1.019v5.019h-2.57V8.182q0-.639-.32-.989-.311-.342-.897-.342-.563 0-.912.388-.343.387-.343 1.026v5.004h-2.691zm17.679 6.706q.669 0 1.126-.357.479-.365.479-.935v-.586l-1.559.107q-1.186.082-1.186.897 0 .403.311.639.305.235.829.235m-.95 1.87q-1.209 0-2.023-.714-.836-.722-.836-1.848 0-2.379 3.429-2.593l1.985-.122V7.62q0-.51-.342-.79-.335-.274-.913-.274-.54 0-.898.258a.97.97 0 0 0-.402.654H97.05q.053-1.286 1.095-2.06 1.05-.784 2.761-.784 1.687 0 2.722.783 1.034.79 1.034 2.069v5.794h-2.616v-1.217h-.053q-.336.624-1.042.981-.684.35-1.475.35m6.533-8.579h2.616v1.59h.053q.464-1.704 2-1.704.365 0 .685.107v2.311q-.35-.152-.867-.152-.867 0-1.331.472-.464.48-.464 1.368v4.471h-2.692zm11.483 0h3.012l-3.042 3.627 3.216 4.836h-3.102l-2.106-3.224-.517.6v2.624h-2.692V1.748h2.692v6.296h.053z"/><path fill="#fff" d="M124.77 6.54q-.646 0-1.088.433-.441.433-.494 1.11h3.148q-.038-.699-.463-1.125-.434-.418-1.103-.418m4.061 4.067a3 3 0 0 1-1.278 2.069q-1.087.775-2.73.775-2.008 0-3.148-1.163t-1.141-3.21q0-2.045 1.133-3.253 1.133-1.202 3.065-1.202 1.893 0 3.026 1.148 1.126 1.156 1.126 3.088v.767h-5.726v.168q0 .775.471 1.255.472.486 1.232.486 1.209 0 1.536-.928zm4.502-7.672v1.87h1.528v1.992h-1.528v3.612q0 .89.981.89.281 0 .547-.038v1.916q-.463.106-1.186.106-1.627 0-2.334-.547-.7-.54-.7-1.787V6.797h-1.133V4.805h1.133v-1.87zm2.708 1.871h2.699v8.463h-2.699zm1.345-.7a1.35 1.35 0 0 1-.973-.38 1.24 1.24 0 0 1-.411-.95q0-.564.411-.951.395-.38.973-.38t.981.38q.411.387.411.95 0 .57-.411.951-.396.38-.981.38m2.724.7h2.615v1.589h.053q.7-1.734 2.7-1.734 1.414 0 2.22.844.799.844.799 2.342v5.422h-2.7V8.425q0-.737-.38-1.148-.387-.42-1.08-.419-.684 0-1.11.457-.426.456-.426 1.179v4.775h-2.691zm13.817 6.379q.76 0 1.193-.563.442-.57.442-1.59 0-1.017-.442-1.619-.44-.6-1.193-.6t-1.186.593q-.441.6-.442 1.62 0 1.026.434 1.596.434.563 1.194.563m-.046 5.224q-1.794 0-2.912-.7-1.134-.706-1.186-1.885h2.615q.084.357.518.577.425.214 1.011.213.737 0 1.178-.35.441-.357.442-.965v-1.605h-.054q-.258.678-.95 1.08-.7.41-1.627.41-1.529 0-2.441-1.102-.928-1.125-.928-3.072 0-2.015.913-3.163.912-1.155 2.501-1.156.897 0 1.589.441.67.434.966 1.156h.046V4.805h2.684v8.296q0 1.506-1.194 2.403-1.194.905-3.171.905m-115.15 3.923H36.35l-.63 1.737h-.569l2.122-5.67h.534l2.119 5.67h-.566zm-2.22-.464h2.06l-1.019-2.806h-.023zm7.356 2.202h-.687l-2.075-2.072h-.024v2.071h-.515v-4.232h.515v1.906h.024l2.023-1.906h.66l-2.157 2.012zm3.615-3.797h-1.446v3.796h-.514v-3.796h-1.447v-.436h3.407zm.991 5.27q-.135 0-.26-.032v-.444q.118.028.256.028a.66.66 0 0 0 .467-.17q.178-.165.319-.565l.094-.263-1.591-4.26h.557l1.297 3.706h.012l1.3-3.706h.55l-1.65 4.436q-.275.747-.558 1.006-.278.264-.793.264m4.892-1.883q.57 0 .951-.343.385-.337.385-.84v-.468l-1.238.087q-1.088.07-1.088.797 0 .342.275.555.275.211.715.212m-.102.455q-.633 0-1.026-.337a1.12 1.12 0 0 1-.393-.889q0-1.104 1.556-1.214l1.301-.087v-.36q0-.465-.279-.72-.282-.255-.794-.255-.444 0-.734.212a.93.93 0 0 0-.362.593h-.5q.033-.558.484-.912.448-.357 1.116-.357.727 0 1.16.377.428.378.428 1.018v2.884h-.495v-.81h-.012a1.37 1.37 0 0 1-.566.622q-.397.235-.884.235m3.883-1.865q-.072.912-.291 1.336-.271.519-.837.519a.7.7 0 0 1-.236-.04v-.475a.7.7 0 0 0 .212.03q.31 0 .471-.384.138-.33.19-1.006.09-.943.164-2.393h2.708v4.232h-.515v-3.796h-1.725a41 41 0 0 1-.141 1.976m3.905-.534v1.918h.916q.465 0 .743-.263.275-.26.275-.696 0-.44-.28-.7-.273-.259-.738-.259zm-.514-1.878h.514v1.438h.916q.699 0 1.116.378.42.38.42 1.02 0 .637-.42 1.02-.417.375-1.116.376h-1.43zm6.637 2.252h-2.373v1.98h-.515v-4.232h.515v1.816h2.373v-1.816h.515v4.232h-.515zm5.124-2.252h.515v4.232h-.515zm-3.08 1.878v1.918h.915q.465 0 .743-.263.274-.26.274-.696 0-.44-.278-.7-.275-.259-.74-.259zm-.515-1.878h.514v1.438h.916q.699 0 1.116.378.42.38.42 1.02 0 .637-.42 1.02-.417.375-1.116.376h-1.43zm6.107-1.78q0 .353.212.574a.76.76 0 0 0 .573.223q.359 0 .57-.223a.8.8 0 0 0 .212-.574h.397q0 .506-.322.813-.326.31-.857.31-.534 0-.856-.31-.327-.307-.327-.813zm-.983 6.012v-4.232h.515v3.422h.023l2.405-3.422h.515v4.232h-.515v-3.423h-.027l-2.401 3.423zm6.253.001v-4.233h.616l1.674 3.544h.023l1.67-3.544h.598v4.232h-.518v-3.29h-.024l-1.549 3.208h-.404l-1.548-3.207h-.024v3.29zm6.943-.41q.57 0 .951-.343.385-.337.385-.84v-.468l-1.238.087q-1.088.07-1.088.797 0 .342.275.555.274.211.715.212m-.102.455q-.633 0-1.026-.337a1.12 1.12 0 0 1-.393-.889q.001-1.104 1.556-1.214l1.301-.087v-.36q0-.465-.279-.72-.283-.255-.794-.255-.443 0-.735.212a.92.92 0 0 0-.361.593h-.499q.03-.558.483-.912.45-.357 1.116-.357.727 0 1.16.377.428.378.428 1.018v2.884h-.495v-.81h-.012a1.37 1.37 0 0 1-.566.622q-.398.235-.884.235m4.889-4.326q.8 0 1.304.597.5.598.499 1.564 0 .968-.499 1.568-.495.597-1.297.597-.499 0-.888-.255a1.46 1.46 0 0 1-.558-.664h-.012v2.26h-.518v-5.62h.49v.876h.013a1.43 1.43 0 0 1 .565-.664q.405-.26.9-.26m-.091 3.859q.614 0 .99-.464.373-.468.373-1.23 0-.763-.373-1.234a1.21 1.21 0 0 0-.99-.467 1.2 1.2 0 0 0-.983.471q-.38.476-.38 1.226 0 .755.38 1.226a1.2 1.2 0 0 0 .983.472m5.998.423h-.688l-2.075-2.072h-.023v2.071h-.516v-4.232h.516v1.906h.023l2.024-1.906h.66L95.48 19.85zm2.169-3.821q-.57 0-.935.389-.37.385-.406 1.017h2.633q-.007-.632-.361-1.017-.357-.39-.931-.39m1.78 2.621a1.36 1.36 0 0 1-.574.892q-.483.353-1.167.353-.88 0-1.399-.577-.519-.582-.519-1.576 0-.986.515-1.58.519-.593 1.372-.593.833 0 1.332.558.495.561.495 1.505v.228h-3.175v.027q0 .715.38 1.132t1.011.417q.468 0 .798-.22a.96.96 0 0 0 .416-.566zm3.835-2.596h-1.446v3.796h-.515v-3.796h-1.446v-.436h3.407zm.664 3.797v-4.233h.515v3.423h.024l2.404-3.423h.516v4.232h-.516v-3.422h-.027l-2.401 3.422zm7.357-1.981h-2.374v1.98h-.515v-4.232h.515v1.816h2.374v-1.816h.514v4.232h-.514zm2.043-1.816v3.796h-.515v-4.232h2.684v.436zm4.712 3.797v-4.233h.515v3.423h.024l2.404-3.423h.515v4.232h-.515v-3.422h-.027l-2.401 3.422zm9.102-3.797h-2.335v3.796h-.515v-4.232h3.364v4.232h-.514zm3.497-.484q.802 0 1.305.597.499.598.499 1.564 0 .968-.499 1.568-.496.597-1.297.597-.5 0-.889-.255a1.46 1.46 0 0 1-.557-.664h-.012v2.26h-.519v-5.62h.492v.876h.011q.17-.408.566-.664.405-.26.9-.26m-.09 3.859q.612 0 .99-.464.373-.468.373-1.23 0-.763-.373-1.234a1.21 1.21 0 0 0-.99-.467 1.2 1.2 0 0 0-.983.471q-.381.476-.381 1.226 0 .755.381 1.226a1.2 1.2 0 0 0 .983.472m4.405.468q-.873 0-1.396-.59-.526-.585-.526-1.575 0-.986.526-1.575.523-.586 1.396-.586.876 0 1.399.585.526.59.526 1.576t-.526 1.576q-.523.59-1.399.59m0-.467q.648 0 1.021-.452.374-.456.374-1.246t-.374-1.245q-.373-.453-1.021-.452-.645 0-1.018.452-.373.455-.373 1.245t.373 1.246q.373.451 1.018.452m5.619-3.376h-1.839q-.059 1.125-.145 1.976-.082.996-.382 1.36v.024h2.366zm-3.325 4.916v-1.556h.342q.425-.274.515-1.403.118-1.454.165-2.393h2.822v3.796h.683v1.556h-.487v-1.12h-3.552v1.12zM146 21.66q.57 0 .951-.343.385-.337.385-.84v-.468l-1.238.087q-1.088.07-1.088.797a.67.67 0 0 0 .275.555q.275.211.715.212m-.102.455q-.633 0-1.026-.337a1.12 1.12 0 0 1-.393-.889q0-1.104 1.557-1.214l1.3-.087v-.36q0-.465-.279-.72-.283-.255-.794-.255-.444 0-.734.212a.92.92 0 0 0-.362.593h-.499q.031-.558.483-.912.448-.357 1.116-.357.727 0 1.159.377.429.378.429 1.018v2.884h-.496v-.81h-.011a1.37 1.37 0 0 1-.566.622q-.398.235-.884.235m8.225-.045h-.684l-1.898-2.072h-.024v2.071h-.514V20h-.024l-1.898 2.07h-.668l2.047-2.208-1.984-2.024h.656l1.847 1.906h.024v-1.906h.514v1.906h.024l1.847-1.906h.652l-1.977 2.012zm.609 0v-4.233h.515v3.423h.023l2.405-3.423h.515v4.232h-.515v-3.422h-.027l-2.401 3.422z"/><path fill="url(#b)" fill-rule="evenodd" d="m20.078 14.893.062-.245 1.777 5.454-.215.306v-.03l-.061.122c-5.117 6.802-15.963 5.484-19.976-1.44-4.259-7.353.061-17.065 8.395-18.812a15 15 0 0 1 2.635-.245c3.952 0 8.119 1.716 10.233 5.178L24.582.677h5.147l-3.89 10.815 2.512 6.986c.275.704 1.041 1.103 1.746.919l.214-.061 1.38 4.626-1.655.429c-2.36.582-4.78-.613-5.668-2.88a8 8 0 0 1-.582-1.287l-.92-2.42-.06-.092v-.03l-2.054-6.22c-1.133-3.432-3.247-5.086-4.932-5.76-.92-.43-1.961-.644-3.064-.644-4.259 0-7.69 3.401-7.69 7.568s3.431 7.568 7.69 7.568c3.431 0 6.342-2.237 7.322-5.3" clip-rule="evenodd"/></g><defs><linearGradient id="b" x1="0.0410604" x2="30.6792" y1="0.352299" y2="0.352299" gradientUnits="userSpaceOnUse"><stop stop-color="#7A5FFF"/><stop offset="1" stop-color="#00E824"/></linearGradient><clipPath id="a"><path fill="#fff" d="M0 0h158.333v25H0z"/></clipPath></defs></svg>